<svg width="22" height="22" viewBox="0 0 22 22" fill="none" xmlns="http://www.w3.org/2000/svg">
<path d="M5.50119 5.33197C5.50119 4.10312 6.29673 3.04089 7.46548 2.46187V10.6639H9.82262V1.99949H12.1798V10.6639H14.5369V2.46187C15.7057 3.04089 16.5012 4.10312 16.5012 5.33197V10.6639H18.8583V5.33197C18.8583 2.38689 16.0445 0 12.5726 0H9.42976C5.95789 0 3.14404 2.38689 3.14404 5.33197V10.6639H5.50119V5.33197ZM21.9177 14.2422L21.3923 12.9092C21.1762 12.3635 20.5771 11.9969 19.8994 11.9969H2.09806C1.42038 11.9969 0.821275 12.3635 0.605204 12.9092L0.079757 14.2422C-0.254172 15.1045 0.502079 15.9959 1.57262 15.9959V20.6614C1.57262 21.028 1.92619 21.3279 2.35833 21.3279H3.92976C4.3619 21.3279 4.71547 21.028 4.71547 20.6614V15.9959H17.2869V20.6614C17.2869 21.028 17.6405 21.3279 18.0726 21.3279H19.6441C20.0762 21.3279 20.4298 21.028 20.4298 20.6614V15.9959C21.5003 15.9959 22.2566 15.1045 21.9177 14.2422Z" fill="black"/>
</svg>
