<svg width="18" height="20" viewBox="0 0 18 20" fill="none" xmlns="http://www.w3.org/2000/svg">
<path d="M4.50107 5C4.50107 3.84766 5.15198 2.85156 6.10825 2.30859V10H8.03687V1.875H9.96548V10H11.8941V2.30859C12.8504 2.85156 13.5013 3.84766 13.5013 5V10H15.4299V5C15.4299 2.23828 13.1276 0 10.2869 0H7.71543C4.87474 0 2.57246 2.23828 2.57246 5V10H4.50107V5ZM17.9331 13.3555L17.5032 12.1055C17.3264 11.5937 16.8362 11.25 16.2817 11.25H1.71663C1.16216 11.25 0.671968 11.5937 0.495178 12.1055L0.0652572 13.3555C-0.207963 14.1641 0.410801 15 1.28671 15V19.375C1.28671 19.7188 1.57601 20 1.92959 20H3.21533C3.56891 20 3.8582 19.7188 3.8582 19.375V15H14.1442V19.375C14.1442 19.7188 14.4334 20 14.787 20H16.0728C16.4263 20 16.7156 19.7188 16.7156 19.375V15C17.5916 15 18.2103 14.1641 17.9331 13.3555Z" fill="white"/>
</svg>
